<?xml version="1.0" encoding="utf-8"?>
<!-- Svg Vector Icons : http://www.onlinewebfonts.com/icon -->
<!DOCTYPE svg PUBLIC "-//W3C//DTD SVG 1.1//EN" "http://www.w3.org/Graphics/SVG/1.1/DTD/svg11.dtd">
<svg version="1.1" xmlns="http://www.w3.org/2000/svg" xmlns:xlink="http://www.w3.org/1999/xlink" x="0px" y="0px" viewBox="0 0 256 256" enable-background="new 0 0 256 256" xml:space="preserve">
<metadata> Svg Vector Icons : http://www.onlinewebfonts.com/icon </metadata>
<g><g><g><path fill="#000000" d="M24.5,19.2c-7.4,2.6-12.6,8.4-14,15.8c-0.7,3.9-0.7,146.2,0,149.6c1.7,7.8,8,14.3,15.7,16.1c2.2,0.5,107.2,0.8,107.2,0.3c0-0.1-0.8-1.5-1.8-3c-1.6-2.6-3.1-6.2-3.8-9.7l-0.3-1.3H78.2c-48.5,0-49.3,0-50.9-1c-3.2-2-3,2.9-3-76.2c0-78-0.1-73.9,2.7-76.1l1.4-1.1h94.1c82.5,0,94.3,0.1,95.6,0.7c3.1,1.6,2.9-1,2.9,43.2v40.3l1.1-0.2c4.2-1,8.6-0.7,12.3,0.9c0.8,0.3,0.8-1.6,0.7-41.9L235,33.3l-1.6-3.3c-2.1-4.2-5.6-7.7-9.8-9.8l-3.3-1.6l-96.6-0.1C33,18.3,26.9,18.4,24.5,19.2z"/><path fill="#000000" d="M50.3,62.5c-1.4,1.2-1.6,1.8-1.6,3.7c0,2,0.2,2.5,1.6,3.7l1.6,1.4h71.1h71.1l1.4-1.4c1.1-1.1,1.4-1.9,1.4-3.5c0-2.6-0.6-3.7-2.5-4.7c-1.2-0.6-10-0.7-72-0.7H51.8L50.3,62.5z"/><path fill="#000000" d="M52.5,86c-1.6,0.3-3.5,2.5-3.9,4.4c-0.3,2,0.9,4.5,2.8,5.5c0.9,0.5,16.6,0.6,71.4,0.6c75.7,0,72.2,0.1,73.6-2.4c0.7-1.5,0.6-4.6-0.3-5.9c-1.9-2.6,1.3-2.5-73.3-2.5C84.7,85.7,53.1,85.9,52.5,86z"/><path fill="#000000" d="M98.2,107.5c-3.3,1.7-6.7,5.4-8.7,9.5c-1.4,3-1.6,3.7-1.6,8.2c0,4.3,0.1,5.3,1.3,7.7l1.3,2.8l-2.7,1c-1.5,0.6-2.9,1-3,1c-0.2,0-0.8-1.4-1.2-3.1c-1.3-4.8-3.1-6.2-5.6-4.4c-1.3,0.9-1.4,2.5-0.4,5.4c1.5,4.5,1.5,4.5-1.1,5.4c-17.9,6.7-21.8,16.5-11.1,27.8c3.9,4.1,6.6,5.6,10,5.3c6.8-0.6,10.4-8.9,10.4-23.3v-6.9l4.7-1.8l4.7-1.7l2.8,1.3c2.2,1,3.8,1.3,7.3,1.5l4.5,0.2l-3.2,4.3c-4.7,6.1-7.5,13.2-6.8,17c1,5.5,6.3,6.6,12.2,2.8c1.8-1.2,2.5-1.4,3.2-1c2.4,1.3,6.3-0.2,10.4-3.8l2.3-2l1.7,0.9c2.1,1.1,6.2,1.2,8.6,0.2c2.2-0.9,5.8-4.2,7.6-7.2c1.4-2.2,1.7-2.4,3.5-2.4c2.4,0,5-2.2,6-5c0.7-2.1,0.7-2.1,4.1-2.7c4.5-0.8,9.5-2.7,16.6-6.1c8.7-4.3,10.1-5.5,10.1-7.9c0-1.4-1.5-2.9-2.9-2.9c-0.4,0-1.6,0.6-2.5,1.3c-2.7,2.1-14,7.5-18.4,8.9l-4,1.3l-1.5-1.1c-2.7-2-5.5,0-6.2,4.5l-0.3,1.9l-1.4-1.5c-0.7-0.8-1.7-1.5-2.1-1.5c-1.5,0-2.8,1.8-3.6,4.7c-1.7,6.5-6.4,11.3-10.3,10.4c-1.2-0.3-1.1-0.3,2.3-5.6c1.9-2.9,4.6-7.5,5.9-10.3c2.4-4.7,2.6-5.3,2.6-8.8c0-3.5-0.1-3.8-1.3-4.9c-1.8-1.6-3.6-1.5-6.3,0.2c-5.6,3.6-12.7,15.9-12.7,22c0,1.6-0.6,2.2-1.2,1.2c-0.5-0.8-3-0.5-3.8,0.3c-0.4,0.5-1.4,2.1-2.1,3.5c-1.6,3.1-4.7,6.6-7.3,8.3c-2.6,1.6-3,1.5-2.7-0.6c0.5-3.1,3-7.7,7.2-13c6.1-7.7,7.4-11.6,4.4-13.2c-1.2-0.6-1.5-0.6-3.8,0.3c-3.2,1.4-7.2,2.2-9.3,1.8l-1.7-0.3l2.9-1.8c4.8-3.1,7.5-7.2,8.4-13C116,111,107.3,103,98.2,107.5z M105.8,113c3.7,2.6,3.3,11.3-0.7,15.2c-0.9,0.9-3.2,2.5-5.2,3.4c-3.8,2-3.6,2.1-5.3-1.5c-1.1-2.3-1.3-6.3-0.4-9.1c0.7-2.4,3.6-6.3,5.8-7.7C101.9,112,104.3,111.9,105.8,113z M136.7,135.7c-0.4,1-1.8,3.6-3,5.8c-1.3,2.2-2.7,4.5-3,5.3c-1.8,3.2-1.6,0.6,0.3-3.7c1.4-3.1,5.6-9.2,6.3-9.2C137.4,133.8,137.1,134.7,136.7,135.7z M79.9,151.6c0,9.3-2.1,16.2-5.1,16.5c-1.1,0.1-2-0.4-4.7-3.2c-5.7-5.8-6.1-9-1.8-12.7c1.8-1.5,10.2-6.1,11.3-6.1C79.7,146.1,79.9,148.6,79.9,151.6z M123.6,155.1c0,1-2.3,3.8-3,3.8c-0.1,0,0.3-1.1,1-2.5C123,153.8,123.6,153.4,123.6,155.1z"/><path fill="#000000" d="M222.4,123.3c-1.9,0.6-39,22.5-40.4,23.9c-0.3,0.2,3.3,6.7,9,16.2c5.3,8.7,9.8,16.1,10.1,16.5c0.4,0.6,3.8-1.2,19.4-10.7c10.4-6.2,19.5-11.8,20.1-12.3c2.1-1.7,3.9-4.6,4.8-7.7c1.3-4.7,0.6-7.7-3.7-14.8c-1.9-3.1-4.3-6.5-5.3-7.5C232.8,123.3,226.9,121.8,222.4,123.3z"/><path fill="#000000" d="M159.3,160.7c-10.5,6.3-19.8,12.1-20.6,12.9c-3.7,3.5-5.3,9-4.1,13.8c0.9,3.4,6,12.2,8.8,15.1c3.4,3.6,9.1,5.3,13.9,4c1.5-0.4,9.7-5.1,21.9-12.4c10.7-6.4,19.5-11.8,19.5-11.8c0.1-0.1-19.4-32.4-19.9-32.9C178.6,149.3,169.8,154.3,159.3,160.7z"/><path fill="#000000" d="M199.4,185.8c-10.9,6.6-19.5,12.1-19.2,12.2c1.5,0.5,60,5.8,60.9,5.5c1.4-0.4,1.6-2.1,0.8-5.8c-2.3-9.7-8.7-17.7-17.7-22.1c-2.2-1.1-4.2-1.9-4.4-1.9C219.5,173.7,210.3,179.1,199.4,185.8z"/><path fill="#000000" d="M178.7,207c-1.1,0.8-1.2,2.7-0.2,6.3c2.4,9.1,8.9,17,17.3,21c9.2,4.5,20.6,4.3,29.9-0.6c5.2-2.7,10.9-8.5,13.5-13.9c2.2-4.3,2.6-6.4,1.3-7.4c-0.4-0.3-11.2-1.6-29.1-3.2c-15.6-1.4-29.2-2.7-30-2.8C180.4,206.4,179.2,206.6,178.7,207z"/></g></g></g>
</svg>