<?xml version="1.0" encoding="utf-8"?>
<!-- Svg Vector Icons : http://www.onlinewebfonts.com/icon -->
<!DOCTYPE svg PUBLIC "-//W3C//DTD SVG 1.1//EN" "http://www.w3.org/Graphics/SVG/1.1/DTD/svg11.dtd">
<svg version="1.1" xmlns="http://www.w3.org/2000/svg" xmlns:xlink="http://www.w3.org/1999/xlink" x="0px" y="0px" viewBox="0 0 256 256" enable-background="new 0 0 256 256" xml:space="preserve">
<metadata> Svg Vector Icons : http://www.onlinewebfonts.com/icon </metadata>
<g><g><path fill="#000000" d="M245.4,160c0.3,2,0.3,4.5-0.3,7.3c-0.5,2.9-1.3,5.8-2.5,8.7c-1.2,3-2.6,5.6-4.3,8c-1.7,2.4-3.5,4-5.6,5.1c-2,1-3.8,1.5-5.3,1.5c-1.5,0-3.2-0.3-5.1-1c-1.7-0.5-3.8-1-6.3-1.4c-2.5-0.4-5.1-0.5-7.7-0.3c-2.6,0.3-5.2,0.8-7.8,1.6c-2.6,0.8-4.8,2.3-6.7,4.3c-4,4.2-6.4,9-7.1,14.4s0.1,10.5,2.3,15.4c1.7,3.4,1.4,6.7-0.8,10.1c-1,1.3-2.6,2.7-4.8,4.2c-2.2,1.4-4.6,2.7-7.2,3.9s-5.3,2.1-8.2,2.8c-2.9,0.7-5.4,1-7.6,1c-1.5,0-3-0.6-4.3-1.8c-1.3-1.2-2.3-2.5-2.8-3.8h-0.3c-1.9-5.2-5-9.8-9.5-13.5c-4.5-3.8-9.7-5.7-15.6-5.7c-5.7,0-10.9,1.9-15.6,5.7c-4.6,3.8-7.9,8.2-9.8,13.3c-0.8,2-2.1,3.5-3.8,4.4c-1.7,0.9-3.5,1.4-5.6,1.4c-2.4,0-5-0.4-8-1.3c-3-0.8-5.9-1.9-8.9-3.2c-3-1.3-5.6-2.7-8-4.4c-2.4-1.7-4.1-3.4-5.3-5.1c-0.8-1.2-1.3-2.6-1.4-4.2c-0.1-1.6,0.6-3.8,1.9-6.7c1.9-3.9,2.6-8.3,2.1-13.3c-0.4-5-2.6-9.6-6.5-13.8c-2.4-2.5-5.2-4.2-8.6-4.9c-3.4-0.8-6.6-1.1-9.6-0.9c-3.5,0.2-7.2,0.8-10.9,2c-2.4,0.7-4.7,0.5-7.1-0.5c-1.9-0.7-3.6-2.2-5.2-4.7c-1.6-2.5-3-5.2-4.3-8.1c-1.2-2.9-2.2-6-2.8-9.1s-0.8-5.7-0.5-7.7c0.5-3.7,2.2-6.1,5.1-7.1c5.1-2,9.6-5.3,13.7-10c4-4.6,6.1-9.8,6.1-15.6c0-5.9-2-11.1-6.1-15.4c-4.1-4.4-8.6-7.6-13.7-9.6c-1.5-0.5-2.8-1.7-3.8-3.7c-1-2-1.5-3.9-1.5-5.9c0-2.2,0.3-4.6,1-7.3s1.6-5.3,2.6-7.9c1.1-2.5,2.4-4.8,3.8-7c1.4-2.1,3-3.7,4.7-4.7c1.3-0.8,2.6-1.2,3.9-1c1.3,0.2,2.6,0.5,4.2,1c5.1,2,10.3,2.6,15.8,1.9c5.5-0.8,10.3-3.2,14.5-7.2c2-2,3.5-4.5,4.4-7.5s1.5-5.9,1.8-8.7c0.3-2.9,0.3-5.5,0-7.9s-0.5-4-0.6-5.1c-0.3-1-0.6-2.2-0.9-3.5c-0.3-1.3-0.1-2.5,0.4-3.5c1-2.4,2.8-4.4,5.4-6.2c2.6-1.8,5.4-3.3,8.5-4.4c3-1.2,6-2.1,8.9-2.6c2.9-0.6,5.2-0.9,6.8-0.9c2.2,0,3.9,0.7,5.2,2.1c1.3,1.4,2.1,2.9,2.6,4.4c1.9,4.6,4.9,8.6,9.1,12c4.2,3.5,9.2,5.2,14.9,5.2c5.9,0,11.1-1.6,15.7-4.9c4.6-3.3,7.8-7.5,9.6-12.5c0.7-1.3,1.7-2.7,3.2-4.2c1.4-1.4,2.9-2.1,4.4-2.1c2.4,0,4.9,0.3,7.7,1c2.8,0.7,5.5,1.6,8.2,2.8c2.7,1.2,5.2,2.7,7.5,4.6c2.3,1.9,4.1,3.9,5.4,6.1c0.8,1.3,1.1,2.8,0.8,4.4c-0.3,1.6-0.7,2.7-1,3.4c-2.2,4.9-2.9,10-2,15.4c0.8,5.4,3.3,10.1,7.3,14.2c4,4,9,6.3,14.9,6.7c5.9,0.4,11.4-0.6,16.4-2.9c1.3-0.8,3-1.2,4.9-1c1.9,0.2,3.6,0.9,4.9,2.3c2.5,2.4,4.8,5.9,6.7,10.8c2,4.8,3.3,9.7,3.9,14.5c0.3,2.9-0.1,5.1-1.4,6.7c-1.3,1.6-2.6,2.6-3.9,3.2c-5.2,1.9-9.7,5.1-13.4,9.8c-3.7,4.6-5.6,9.9-5.6,15.8c0,5.7,1.6,10.8,4.7,15.1c3.1,4.3,7.2,7.4,12.3,9.2c1.2,0.7,2.2,1.3,3,2C243.5,155.7,244.7,157.7,245.4,160L245.4,160z M127.7,182.8c7.6,0,14.8-1.4,21.5-4.3c6.7-2.9,12.6-6.8,17.6-11.9c5-5.1,8.9-10.9,11.8-17.6c2.9-6.7,4.3-13.8,4.3-21.4s-1.4-14.7-4.3-21.4c-2.9-6.7-6.8-12.5-11.8-17.5c-5-5-10.8-8.9-17.6-11.8c-6.7-2.9-13.9-4.3-21.5-4.3c-7.6,0-14.7,1.4-21.4,4.3c-6.7,2.9-12.5,6.8-17.5,11.8c-5,5-8.9,10.8-11.8,17.5c-2.9,6.7-4.3,13.8-4.3,21.4s1.4,14.7,4.3,21.4s6.8,12.5,11.8,17.6c5,5.1,10.8,9,17.5,11.9C113,181.4,120.1,182.8,127.7,182.8L127.7,182.8z"/></g></g>
</svg>